<svg width="33" height="45" viewBox="0 0 33 45" fill="none" xmlns="http://www.w3.org/2000/svg">
<path d="M12.5245 32.727C8.87745 29.128 3.64684 27.8803 -0.000166818 27.9283L-0.000166902 28.888C3.45489 28.84 8.39763 29.9917 11.8527 33.3988C14.396 35.9421 15.7876 39.3011 15.8835 43.476L15.8835 44.0999L16.8433 44.0999C16.8433 39.6371 18.2349 36.038 20.9222 33.3988C24.3772 29.9917 29.3198 28.84 32.7749 28.888L32.7749 27.9283C29.1279 27.8803 23.8974 29.128 20.2504 32.727C18.7193 34.2349 17.5538 36.0734 16.8433 38.1015L16.8433 34.0657C16.8433 29.6029 18.2349 26.0088 20.9222 23.3695C24.3772 19.9625 29.3198 18.8107 32.7749 18.8587L32.7749 17.899C29.1279 17.851 23.8974 19.0986 20.2504 22.6977C18.7193 24.2056 17.5538 26.044 16.8433 28.0722L16.8433 -0.000171795L15.8835 -0.000171879L15.8835 28.0242C15.2016 26.0077 14.0503 24.182 12.5245 22.6977C8.87746 19.0986 3.64684 17.851 -0.000165941 17.899L-0.000166025 18.8587C3.45489 18.8107 8.39763 19.9625 11.8527 23.3695C14.396 25.9128 15.7876 29.2719 15.8835 33.4468L15.8835 34.0705L15.8835 38.0535C15.2016 36.0369 14.0503 34.2113 12.5245 32.727Z" fill="#00843E"/>
</svg>
